<svg xmlns="http://www.w3.org/2000/svg" width="109.828" height="92.238" viewBox="0 0 109.828 92.238">
  <g id="camera" transform="translate(0 -41)">
    <path id="Path_2229" data-name="Path 2229" d="M53.87,41H47.435A6.435,6.435,0,0,0,41,47.435H60.306A6.435,6.435,0,0,0,53.87,41Z" transform="translate(-32.205)" fill="#142980"/>
    <path id="Path_2230" data-name="Path 2230" d="M98.03,53.87H76.539l-2.09-6.27A9.641,9.641,0,0,0,65.291,41H44.537a9.641,9.641,0,0,0-9.158,6.6l-2.09,6.27H11.8A11.811,11.811,0,0,0,0,65.668V121.44a11.811,11.811,0,0,0,11.8,11.8H98.03a11.811,11.811,0,0,0,11.8-11.8V65.668A11.811,11.811,0,0,0,98.03,53.87Zm-87.09,11.8a3.218,3.218,0,0,1,3.218-3.218h6.435a3.218,3.218,0,0,1,0,6.435H14.158A3.218,3.218,0,0,1,10.94,65.668Zm43.974,56.845a31.1,31.1,0,1,1,31.1-31.1A31.139,31.139,0,0,1,54.914,122.513ZM93.525,68.886a3.218,3.218,0,1,1,3.218-3.218A3.218,3.218,0,0,1,93.525,68.886Z" transform="translate(0 0)" fill="#142980"/>
    <path id="Path_2231" data-name="Path 2231" d="M165.668,161a24.668,24.668,0,1,0,24.668,24.668A24.7,24.7,0,0,0,165.668,161Zm0,41.829a17.161,17.161,0,1,1,17.161-17.161A17.18,17.18,0,0,1,165.668,202.829Z" transform="translate(-110.754 -94.259)" fill="#142980"/>
    <ellipse id="Ellipse_392" data-name="Ellipse 392" cx="11" cy="10.5" rx="11" ry="10.5" transform="translate(43.809 80.98)" fill="#142980"/>
  </g>
</svg>
