<svg id="clock" xmlns="http://www.w3.org/2000/svg" width="44.984" height="44.984" viewBox="0 0 44.984 44.984">
  <path id="Path_2214" data-name="Path 2214" d="M40.251,11.836a1.874,1.874,0,0,0-.871,2.5,18.553,18.553,0,0,1,1.856,8.153A18.743,18.743,0,1,1,22.492,3.749,18.518,18.518,0,0,1,34.128,7.793a1.874,1.874,0,1,0,2.332-2.934,22.5,22.5,0,1,0,8.524,17.634,22.263,22.263,0,0,0-2.23-9.785A1.872,1.872,0,0,0,40.251,11.836Zm0,0" fill="#fff"/>
  <path id="Path_2215" data-name="Path 2215" d="M177.874,64A1.875,1.875,0,0,0,176,65.874v13.12a1.875,1.875,0,0,0,1.874,1.874h9.372a1.874,1.874,0,0,0,0-3.749h-7.5V65.874A1.875,1.875,0,0,0,177.874,64Zm0,0" transform="translate(-155.382 -56.503)" fill="#fff"/>
</svg>
