<svg xmlns="http://www.w3.org/2000/svg" width="81.031" height="108.041" viewBox="0 0 81.031 108.041">
  <g id="passport" transform="translate(-64)">
    <g id="Group_821" data-name="Group 821" transform="translate(64)">
      <g id="Group_820" data-name="Group 820">
        <path id="Path_2218" data-name="Path 2218" d="M231.065,222.925c2.532,0,6.242-8.022,6.669-20.258H224.4C224.823,214.9,228.533,222.925,231.065,222.925Z" transform="translate(-190.55 -159.901)" fill="#142980"/>
        <path id="Path_2219" data-name="Path 2219" d="M290.159,91.452c2.416,4.717,3.773,11.743,4.006,18.966h11.067A22.413,22.413,0,0,0,290.159,91.452Z" transform="translate(-242.435 -72.154)" fill="#142980"/>
        <path id="Path_2220" data-name="Path 2220" d="M150.411,110.418h11.067c.233-7.224,1.59-14.249,4.006-18.966A22.413,22.413,0,0,0,150.411,110.418Z" transform="translate(-132.177 -72.154)" fill="#142980"/>
        <path id="Path_2221" data-name="Path 2221" d="M231.065,85.333c-2.532,0-6.242,8.022-6.669,20.258h13.338C237.307,93.356,233.6,85.333,231.065,85.333Z" transform="translate(-190.55 -67.326)" fill="#142980"/>
        <path id="Path_2222" data-name="Path 2222" d="M136.027,0H73a9.012,9.012,0,0,0-9,9V99.038a9.012,9.012,0,0,0,9,9h63.024a9.012,9.012,0,0,0,9-9V9A9.012,9.012,0,0,0,136.027,0ZM120.271,94.536H88.759a2.251,2.251,0,0,1,0-4.5h31.512a2.251,2.251,0,0,1,0,4.5Zm9-13.505H79.756a2.251,2.251,0,0,1,0-4.5h49.519a2.251,2.251,0,1,1,0,4.5ZM104.515,67.526a27.01,27.01,0,1,1,27.01-27.01A27.04,27.04,0,0,1,104.515,67.526Z" transform="translate(-64)" fill="#142980"/>
        <path id="Path_2223" data-name="Path 2223" d="M290.159,221.633a22.414,22.414,0,0,0,15.073-18.966H294.165C293.932,209.891,292.575,216.916,290.159,221.633Z" transform="translate(-242.435 -159.901)" fill="#142980"/>
        <path id="Path_2224" data-name="Path 2224" d="M150.411,202.667a22.413,22.413,0,0,0,15.073,18.966c-2.416-4.717-3.773-11.743-4.006-18.966Z" transform="translate(-132.177 -159.901)" fill="#142980"/>
      </g>
    </g>
  </g>
</svg>
