<svg xmlns="http://www.w3.org/2000/svg" fill="white" width="99.964" height="99.964" viewBox="0 0 99.964 99.964">
  <g id="plane" transform="translate(0 -0.036)">
    <g id="Group_984" data-name="Group 984">
      <path id="Path_2326" data-name="Path 2326" d="M98,2C95.6-.4,91.6-.6,86.2,1.4,82.4,2.8,78.6,5,76.8,6.8l-15,15L12.4,14,0,26.6l41,16L27.8,55.8l-18.6,1L0,65.8l20.2,9.8-5.6,5.6,4.2,4.2,5.6-5.6L34.2,100l9-9,1-18.6L57.6,59l16,41L86.2,87.4,78.4,38.2,93.2,23.4c1.8-1.8,4-5.8,5.4-9.4C100.6,8.6,100.4,4.4,98,2ZM10.4,24.4l4-4,42,6.6-11,11ZM80,85.4l-4,4-13.8-35L73.4,43.2ZM93.2,12a29.752,29.752,0,0,1-4,7.4L38.6,69.8l-1,18.6L36,90,29,75.4l5.2-5.2L29.8,66l-5,5L10,64.2l1.6-1.6,18.6-1L80.8,11a22.083,22.083,0,0,1,7.4-4c3.6-1.2,5.4-1,5.8-.6C94.2,6.6,94.4,8.4,93.2,12Z"/>
    </g>
  </g>
</svg>
