<svg xmlns="http://www.w3.org/2000/svg" width="33.617" height="46.031" viewBox="0 0 33.617 46.031">
  <g id="racing-flag" transform="translate(-60.68 0)">
    <g id="Group_653" data-name="Group 653" transform="translate(60.68 0)">
      <path id="Path_2184" data-name="Path 2184" d="M63.469,66.537a1.416,1.416,0,1,0-2.745.7l9.251,36.5a1.416,1.416,0,0,0,2.745-.7Z" transform="translate(-60.68 -58.772)" fill="#fff"/>
      <path id="Path_2185" data-name="Path 2185" d="M129.674,18.046q-2.262-8.351-4.525-16.7A1.519,1.519,0,0,0,123.622.031c-8.479-.614-14.046,7.83-22.525,7.215-.669-.082-1.1.266-.936.869q2.262,8.35,4.525,16.7a1.677,1.677,0,0,0,1.527,1.314c8.479.614,14.046-7.83,22.525-7.215C129.408,19,129.837,18.649,129.674,18.046ZM123.02,2.133l1.248,4.608a15.3,15.3,0,0,0-5.026,1.044l-1.248-4.608A15.3,15.3,0,0,1,123.02,2.133Zm-17.472,17.22q-.71-2.617-1.419-5.236a15.14,15.14,0,0,0,5.278-1.148L108.16,8.361a50.851,50.851,0,0,0,4.912-2.611l1.248,4.608a50.878,50.878,0,0,1-4.912,2.611l1.418,5.236A15.145,15.145,0,0,1,105.548,19.353Zm6.545,3.527L110.827,18.2a50.371,50.371,0,0,0,4.878-2.591l1.267,4.675A50.334,50.334,0,0,1,112.093,22.88Zm3.645-7.286-1.418-5.236a45.672,45.672,0,0,1,4.922-2.573l1.418,5.235A45.747,45.747,0,0,0,115.739,15.593Zm6.219,2.09-1.267-4.675a15.276,15.276,0,0,1,5-1.032l1.267,4.675A15.275,15.275,0,0,0,121.958,17.683Z" transform="translate(-96.092 0)" fill="#fff"/>
    </g>
  </g>
</svg>
