<svg xmlns="http://www.w3.org/2000/svg" width="110.406" height="110.404" viewBox="0 0 110.406 110.404">
  <g id="teamwork" transform="translate(0.001 -0.005)">
    <g id="Group_826" data-name="Group 826" transform="translate(41.268 0.005)">
      <g id="Group_825" data-name="Group 825" transform="translate(0 0)">
        <ellipse id="Ellipse_390" data-name="Ellipse 390" cx="14" cy="13.5" rx="14" ry="13.5" transform="translate(-0.269 0.42)" fill="#142980"/>
      </g>
    </g>
    <g id="Group_828" data-name="Group 828" transform="translate(34.501 34.506)">
      <g id="Group_827" data-name="Group 827">
        <path id="Path_2225" data-name="Path 2225" d="M201.374,190.615l-3.133-24.4a6.874,6.874,0,0,0-6.859-6.21H187.6a3.475,3.475,0,0,0-2.443,1.007L180.7,165.47l-4.458-4.458A3.475,3.475,0,0,0,173.8,160h-3.774a6.858,6.858,0,0,0-6.859,6.121l-3.14,24.5a3.456,3.456,0,0,0,3.423,3.885h3.726l2.884,35.191a6.876,6.876,0,0,0,6.866,6.21h7.556a6.9,6.9,0,0,0,6.873-6.272l2.877-35.129h3.719a3.441,3.441,0,0,0,2.588-1.173A3.4,3.4,0,0,0,201.374,190.615Z" transform="translate(-160 -160.005)" fill="#142980"/>
      </g>
    </g>
    <g id="Group_830" data-name="Group 830" transform="translate(75.844 0.005)">
      <g id="Group_829" data-name="Group 829" transform="translate(0 0)">
        <ellipse id="Ellipse_391" data-name="Ellipse 391" cx="14" cy="13.5" rx="14" ry="13.5" transform="translate(0.155 0.42)" fill="#142980"/>
      </g>
    </g>
    <g id="Group_832" data-name="Group 832" transform="translate(6.9 0.005)">
      <g id="Group_831" data-name="Group 831" transform="translate(0 0)">
        <path id="Path_2226" data-name="Path 2226" d="M45.8,0a13.8,13.8,0,1,0,13.8,13.8A13.814,13.814,0,0,0,45.8,0Z" transform="translate(-31.999 -0.005)" fill="#142980"/>
      </g>
    </g>
    <g id="Group_834" data-name="Group 834" transform="translate(76.779 34.506)">
      <g id="Group_833" data-name="Group 833">
        <path id="Path_2227" data-name="Path 2227" d="M389.66,190.615l-3.133-24.392a6.869,6.869,0,0,0-6.859-6.217h-3.781a3.475,3.475,0,0,0-2.443,1.007l-4.458,4.458-4.458-4.458a3.471,3.471,0,0,0-2.436-1.007h-3.781a6.576,6.576,0,0,0-1.221.228,13.43,13.43,0,0,1,1.794,5.189l3.126,24.316a10.325,10.325,0,0,1-2.525,8.184,10,10,0,0,1-3.423,2.429l2.291,22.447a6.875,6.875,0,0,0,6.866,6.21h7.556a6.9,6.9,0,0,0,6.873-6.272l2.87-28.229h3.719a3.441,3.441,0,0,0,2.588-1.173A3.4,3.4,0,0,0,389.66,190.615Z" transform="translate(-356.063 -160.005)" fill="#142980"/>
      </g>
    </g>
    <g id="Group_836" data-name="Group 836" transform="translate(-0.001 34.506)">
      <g id="Group_835" data-name="Group 835" transform="translate(0)">
        <path id="Path_2228" data-name="Path 2228" d="M30.181,197.887a10.335,10.335,0,0,1-2.5-8.135l3.14-24.5a12.756,12.756,0,0,1,1.718-5.023A6.49,6.49,0,0,0,31.382,160H27.6a3.475,3.475,0,0,0-2.443,1.007L20.7,165.47l-4.458-4.458A3.471,3.471,0,0,0,13.807,160H10.025a6.858,6.858,0,0,0-6.859,6.121l-3.14,24.5a3.456,3.456,0,0,0,3.423,3.885H7.175L10.06,222.8a6.876,6.876,0,0,0,6.866,6.21h7.556a6.9,6.9,0,0,0,6.873-6.272l2.291-22.391A10.347,10.347,0,0,1,30.181,197.887Z" transform="translate(0.001 -160.005)" fill="#142980"/>
      </g>
    </g>
  </g>
</svg>
