<svg xmlns="http://www.w3.org/2000/svg" width="29.457" height="25.042" viewBox="0 0 29.457 25.042">
  <g id="danger" transform="translate(0 -38.365)">
    <g id="Group_40" data-name="Group 40" transform="translate(0 38.365)">
      <path id="Path_9" data-name="Path 9" d="M29.2,60.67,16.274,39.238a1.8,1.8,0,0,0-3.091,0L.259,60.67A1.8,1.8,0,0,0,1.8,63.407H27.652A1.8,1.8,0,0,0,29.2,60.67ZM14.738,45.779a1.223,1.223,0,0,1,1.37,1.161c0,2.265-.266,5.519-.266,7.784,0,.59-.647.837-1.1.837-.609,0-1.123-.247-1.123-.837,0-2.265-.266-5.519-.266-7.784C13.349,46.2,13.958,45.779,14.738,45.779ZM14.757,59.8A1.465,1.465,0,1,1,16.2,58.339,1.488,1.488,0,0,1,14.757,59.8Z" transform="translate(0 -38.365)" fill="#fff"/>
    </g>
  </g>
</svg>
