<svg xmlns="http://www.w3.org/2000/svg" fill="white" width="100.074" height="100" viewBox="0 0 100.074 100">
  <g id="add-user" transform="translate(0.074)">
    <g id="Group_969" data-name="Group 969">
      <g id="Group_968" data-name="Group 968">
        <path id="Path_2279" data-name="Path 2279" d="M71.8,50.2A35.591,35.591,0,0,0,66,47.8a26.6,26.6,0,1,0-32,0,52.626,52.626,0,0,0-16.4,9A49.934,49.934,0,0,0,.2,85.6,11.906,11.906,0,0,0,11.8,100H60a4,4,0,1,0,0-8H11.8a5.312,5.312,0,0,1-3.2-1.4A3.959,3.959,0,0,1,8,87.2,43.3,43.3,0,0,1,49,53h2a43.637,43.637,0,0,1,17.4,4.2,3.952,3.952,0,0,0,5.2-1.8A3.785,3.785,0,0,0,71.8,50.2ZM51,45.2H49a18.8,18.8,0,1,1,2,0Z"/>
      </g>
    </g>
    <g id="Group_971" data-name="Group 971">
      <g id="Group_970" data-name="Group 970">
        <path id="Path_2280" data-name="Path 2280" d="M96,77.6H85.2V66.8a4,4,0,0,0-8,0V77.6H66.4a4,4,0,1,0,0,8H77.2V96a4,4,0,0,0,8,0V85.2H96a4.012,4.012,0,0,0,4-4C100,79,98.2,77.6,96,77.6Z"/>
      </g>
    </g>
  </g>
</svg>
