<svg id="XMLID_1184_" xmlns="http://www.w3.org/2000/svg" fill="white" width="100" height="100" viewBox="0 0 100 100">
  <g id="XMLID_176_">
    <path id="XMLID_178_" d="M62.2,41.4a25.333,25.333,0,0,0-9.4,1.8,1.97,1.97,0,0,0,1.6,3.6,21.947,21.947,0,0,1,8-1.6A20.8,20.8,0,1,1,41.4,66,21.947,21.947,0,0,1,43,58a1.97,1.97,0,0,0-3.6-1.6,25.333,25.333,0,0,0-1.8,9.4A24.6,24.6,0,1,0,62.2,41.4Z"/>
    <path id="XMLID_711_" d="M62.2,82a16,16,0,1,0-16-16A16.047,16.047,0,0,0,62.2,82Zm0-28.2A12.249,12.249,0,0,1,74.4,66,12.078,12.078,0,0,1,62.2,78a12.1,12.1,0,1,1,0-24.2Z"/>
    <path id="XMLID_714_" d="M90,32H84L77.2,20.4a2.039,2.039,0,0,0-1.6-1h-27a1.781,1.781,0,0,0-1.6,1L40,32H28.8V29.6a7,7,0,0,0-14,0V32H10A10.029,10.029,0,0,0,0,42V90a10.029,10.029,0,0,0,10,10H90a10.029,10.029,0,0,0,10-10V42A9.9,9.9,0,0,0,90,32ZM49.6,23.4H74.4l5,8.6H44.6ZM18.8,29.6a3.2,3.2,0,1,1,6.4,0V32H18.8V29.6ZM96,90a5.893,5.893,0,0,1-6,6H10a5.893,5.893,0,0,1-6-6V42a5.893,5.893,0,0,1,6-6H90a5.893,5.893,0,0,1,6,6V90Z"/>
    <path id="XMLID_717_" d="M62.2,62.2A3.8,3.8,0,0,1,66,66a2,2,0,0,0,4,0,7.81,7.81,0,0,0-7.8-7.8,2,2,0,0,0-2,2A1.89,1.89,0,0,0,62.2,62.2Z"/>
    <path id="XMLID_718_" d="M62.2,14.4a2,2,0,0,0,2-2V2a2,2,0,0,0-2-2,1.89,1.89,0,0,0-2,2V12.4A2,2,0,0,0,62.2,14.4Z"/>
    <path id="XMLID_719_" d="M71.4,14.4a2.16,2.16,0,0,0,1.4-.6L80,6.6a1.933,1.933,0,0,0,0-2.8,1.933,1.933,0,0,0-2.8,0L70,11a1.933,1.933,0,0,0,0,2.8,2.16,2.16,0,0,0,1.4.6Z"/>
    <path id="XMLID_720_" d="M51.4,13.8a1.933,1.933,0,0,0,2.8,0,1.933,1.933,0,0,0,0-2.8L47,3.8a1.933,1.933,0,0,0-2.8,0,1.933,1.933,0,0,0,0,2.8Z"/>
    <path id="XMLID_730_" d="M27,48H16.8a2,2,0,1,0,0,4H27a2,2,0,0,0,0-4Z"/>
    <path id="XMLID_731_" d="M46,52a1.98,1.98,0,0,0,1.4-3.4A1.557,1.557,0,0,0,46,48a1.98,1.98,0,0,0-1.4,3.4A2.16,2.16,0,0,0,46,52Z"/>
  </g>
</svg>
