<svg xmlns="http://www.w3.org/2000/svg" fill="white"  width="99.9" height="99.8" viewBox="0 0 99.9 99.8">
  <g id="file" transform="translate(-0.1 -0.1)">
    <g id="Group_978" data-name="Group 978">
      <path id="Path_2305" data-name="Path 2305" d="M99.8,24.1a1.2,1.2,0,0,0-.2-.8.2.2,0,0,0-.2-.2c0-.2-.2-.2-.2-.4L79.7.9A1.819,1.819,0,0,0,78.1.1H41.4a6.659,6.659,0,0,0-6.6,6.6V17.5H6.7A6.659,6.659,0,0,0,.1,24.1V93.5a6.621,6.621,0,0,0,6.6,6.4h52a6.659,6.659,0,0,0,6.6-6.6V82.5H93.4a6.659,6.659,0,0,0,6.6-6.6V28.3h0ZM60.7,93.3a2.22,2.22,0,0,1-2.2,2.2H6.7a2.22,2.22,0,0,1-2.2-2.2V24.1a2.22,2.22,0,0,1,2.2-2.2H34.8V45.8A2.22,2.22,0,0,0,37,48H60.9V93.3Zm0-49.9H39.2V21.9h1.2L60.7,42.2ZM95.4,75.9a2.22,2.22,0,0,1-2.2,2.2H65.1V45.8h0V41.4h0a1.816,1.816,0,0,0-.6-1.4h0L42.8,18.1a2.271,2.271,0,0,0-1.6-.6H39V6.7a2.22,2.22,0,0,1,2.2-2.2H71.5V28.4a2.22,2.22,0,0,0,2.2,2.2H95.4C95.4,30.7,95.4,75.9,95.4,75.9Zm0-49.8H75.9V4.5h1.2L95.4,24.8v1.3Z"/>
    </g>
  </g>
</svg>
