<svg id="edit" xmlns="http://www.w3.org/2000/svg" fill="white" width="99.963" height="100" viewBox="0 0 99.963 100">
  <path id="Path_2303" data-name="Path 2303" d="M82.1,50a3.585,3.585,0,0,0-3.6,3.6V89.3a3.585,3.585,0,0,1-3.6,3.6H10.7a3.585,3.585,0,0,1-3.6-3.6V17.9a3.585,3.585,0,0,1,3.6-3.6H53.6a3.6,3.6,0,0,0,0-7.2H10.7A10.734,10.734,0,0,0,0,17.9V89.3A10.712,10.712,0,0,0,10.7,100H75A10.712,10.712,0,0,0,85.7,89.3V53.6A3.585,3.585,0,0,0,82.1,50Z"/>
  <path id="Path_2304" data-name="Path 2304" d="M96,4a13.528,13.528,0,0,0-9.7-4,13.7,13.7,0,0,0-9.7,4l-47,47a4.2,4.2,0,0,0-.9,1.4L21.6,73.8a3.55,3.55,0,0,0,2.3,4.5,4.253,4.253,0,0,0,1.1.2,3.6,3.6,0,0,0,1.1-.2l21.4-7.1a4.194,4.194,0,0,0,1.4-.9l47-47A13.611,13.611,0,0,0,96,4ZM90.9,18.3,44.5,64.7,30.6,69.3l4.6-13.9L81.7,9.1a6.5,6.5,0,0,1,11.1,4.6A5.838,5.838,0,0,1,90.9,18.3Z"/>
</svg>
