<svg xmlns="http://www.w3.org/2000/svg" fill="white" width="100.109" height="94.791" viewBox="0 0 100.109 94.791">
  <g id="promotion" transform="translate(0.116 -2.862)">
    <path id="Path_2327" data-name="Path 2327" d="M26.8,63.2A1.924,1.924,0,1,0,25,59.8a2.023,2.023,0,0,0-.8,2.6A1.765,1.765,0,0,0,26.8,63.2Z"/>
    <path id="Path_2328" data-name="Path 2328" d="M18.8,76.7l9.8,17.1a7.788,7.788,0,0,0,10.6,2.8A7.66,7.66,0,0,0,42,86L36.2,76l5-3a2.023,2.023,0,0,0,.8-2.6L39.6,66c.4,0,2.2-.4,37.5-7.4a5.865,5.865,0,0,0,4.8-8.8L75.5,38.6l4.2-6.2a1.817,1.817,0,0,0,0-2l-4-6.8a2.1,2.1,0,0,0-1.8-1l-7.6.4L59.1,10.6a5.5,5.5,0,0,0-5-3h0a5.946,5.946,0,0,0-5,2.8L23.4,42.6,6.7,52.2A13.692,13.692,0,0,0,18.8,76.7Zm20,11.2a4.162,4.162,0,0,1-1.4,5.4A4.162,4.162,0,0,1,32,91.9L22.2,74.8l6.8-4C40.2,90.5,38.6,87.7,38.8,87.9ZM34.4,72.5l-2-3.4,3.4-2,2,3.4ZM72.7,26.1l2.6,4.6-2.4,3.6-4.6-8Zm-20.4-14a2.415,2.415,0,0,1,1.6-1,1.834,1.834,0,0,1,1.6,1L78.4,51.6a2.049,2.049,0,0,1-1.6,3,2.676,2.676,0,0,0-1,.2L51.7,13.1C52.1,12.3,52.3,12.3,52.3,12.1Zm-3.2,4.2L71.8,55.6,37.7,62.2l-10.5-18ZM5.1,68.9a10.05,10.05,0,0,1-1.2-4.8,9.576,9.576,0,0,1,4.8-8.4L24,46.8l9.8,17.1L18.6,72.7A9.966,9.966,0,0,1,5.1,68.9Z"/>
    <path id="Path_2329" data-name="Path 2329" d="M20.6,64.4a1.715,1.715,0,0,0-2.6-.6l-3.4,2A2.269,2.269,0,0,1,12,65a2.023,2.023,0,0,0-2.6-.8,2.023,2.023,0,0,0-.8,2.6,5.887,5.887,0,0,0,8,2.2L20,67A1.715,1.715,0,0,0,20.6,64.4Z"/>
    <path id="Path_2330" data-name="Path 2330" d="M97.2,11.5l-10.8,6a1.924,1.924,0,1,0,1.8,3.4l10.8-6a2.023,2.023,0,0,0,.8-2.6A1.765,1.765,0,0,0,97.2,11.5Z"/>
    <path id="Path_2331" data-name="Path 2331" d="M96.2,31.7l-7.6-2a1.965,1.965,0,1,0-1,3.8l7.6,2a2.057,2.057,0,0,0,2.4-1.4A1.954,1.954,0,0,0,96.2,31.7Z"/>
    <path id="Path_2332" data-name="Path 2332" d="M77.1,4.3l-2,7.6a1.965,1.965,0,0,0,3.8,1l2-7.6a1.965,1.965,0,0,0-3.8-1Z"/>
  </g>
</svg>
